%TF.GenerationSoftware,KiCad,Pcbnew,(5.1.9-0-10_14)*%
%TF.CreationDate,2024-02-19T19:40:51-08:00*%
%TF.ProjectId,TRax-LaserParkDetector,54526178-2d4c-4617-9365-725061726b44,rev?*%
%TF.SameCoordinates,Original*%
%TF.FileFunction,Legend,Top*%
%TF.FilePolarity,Positive*%
%FSLAX46Y46*%
G04 Gerber Fmt 4.6, Leading zero omitted, Abs format (unit mm)*
G04 Created by KiCad (PCBNEW (5.1.9-0-10_14)) date 2024-02-19 19:40:51*
%MOMM*%
%LPD*%
G01*
G04 APERTURE LIST*
%ADD10C,0.150000*%
%ADD11C,0.200000*%
%ADD12C,0.300000*%
%ADD13C,0.120000*%
G04 APERTURE END LIST*
D10*
X69375238Y-102401666D02*
X69851428Y-102401666D01*
X69280000Y-102687380D02*
X69613333Y-101687380D01*
X69946666Y-102687380D01*
X70422857Y-102687380D02*
X70327619Y-102639761D01*
X70280000Y-102544523D01*
X70280000Y-101687380D01*
X70946666Y-102687380D02*
X70851428Y-102639761D01*
X70803809Y-102544523D01*
X70803809Y-101687380D01*
X71994285Y-102020714D02*
X72232380Y-102687380D01*
X72470476Y-102020714D02*
X72232380Y-102687380D01*
X72137142Y-102925476D01*
X72089523Y-102973095D01*
X71994285Y-103020714D01*
X72994285Y-102687380D02*
X72899047Y-102639761D01*
X72851428Y-102592142D01*
X72803809Y-102496904D01*
X72803809Y-102211190D01*
X72851428Y-102115952D01*
X72899047Y-102068333D01*
X72994285Y-102020714D01*
X73137142Y-102020714D01*
X73232380Y-102068333D01*
X73280000Y-102115952D01*
X73327619Y-102211190D01*
X73327619Y-102496904D01*
X73280000Y-102592142D01*
X73232380Y-102639761D01*
X73137142Y-102687380D01*
X72994285Y-102687380D01*
X74184761Y-102020714D02*
X74184761Y-102687380D01*
X73756190Y-102020714D02*
X73756190Y-102544523D01*
X73803809Y-102639761D01*
X73899047Y-102687380D01*
X74041904Y-102687380D01*
X74137142Y-102639761D01*
X74184761Y-102592142D01*
X74660952Y-102687380D02*
X74660952Y-102020714D01*
X74660952Y-102211190D02*
X74708571Y-102115952D01*
X74756190Y-102068333D01*
X74851428Y-102020714D01*
X74946666Y-102020714D01*
X76041904Y-102687380D02*
X76041904Y-101687380D01*
X76041904Y-102068333D02*
X76137142Y-102020714D01*
X76327619Y-102020714D01*
X76422857Y-102068333D01*
X76470476Y-102115952D01*
X76518095Y-102211190D01*
X76518095Y-102496904D01*
X76470476Y-102592142D01*
X76422857Y-102639761D01*
X76327619Y-102687380D01*
X76137142Y-102687380D01*
X76041904Y-102639761D01*
X77375238Y-102687380D02*
X77375238Y-102163571D01*
X77327619Y-102068333D01*
X77232380Y-102020714D01*
X77041904Y-102020714D01*
X76946666Y-102068333D01*
X77375238Y-102639761D02*
X77280000Y-102687380D01*
X77041904Y-102687380D01*
X76946666Y-102639761D01*
X76899047Y-102544523D01*
X76899047Y-102449285D01*
X76946666Y-102354047D01*
X77041904Y-102306428D01*
X77280000Y-102306428D01*
X77375238Y-102258809D01*
X77803809Y-102639761D02*
X77899047Y-102687380D01*
X78089523Y-102687380D01*
X78184761Y-102639761D01*
X78232380Y-102544523D01*
X78232380Y-102496904D01*
X78184761Y-102401666D01*
X78089523Y-102354047D01*
X77946666Y-102354047D01*
X77851428Y-102306428D01*
X77803809Y-102211190D01*
X77803809Y-102163571D01*
X77851428Y-102068333D01*
X77946666Y-102020714D01*
X78089523Y-102020714D01*
X78184761Y-102068333D01*
X79041904Y-102639761D02*
X78946666Y-102687380D01*
X78756190Y-102687380D01*
X78660952Y-102639761D01*
X78613333Y-102544523D01*
X78613333Y-102163571D01*
X78660952Y-102068333D01*
X78756190Y-102020714D01*
X78946666Y-102020714D01*
X79041904Y-102068333D01*
X79089523Y-102163571D01*
X79089523Y-102258809D01*
X78613333Y-102354047D01*
X80708571Y-102687380D02*
X80708571Y-102163571D01*
X80660952Y-102068333D01*
X80565714Y-102020714D01*
X80375238Y-102020714D01*
X80280000Y-102068333D01*
X80708571Y-102639761D02*
X80613333Y-102687380D01*
X80375238Y-102687380D01*
X80280000Y-102639761D01*
X80232380Y-102544523D01*
X80232380Y-102449285D01*
X80280000Y-102354047D01*
X80375238Y-102306428D01*
X80613333Y-102306428D01*
X80708571Y-102258809D01*
X81184761Y-102687380D02*
X81184761Y-102020714D01*
X81184761Y-102211190D02*
X81232380Y-102115952D01*
X81280000Y-102068333D01*
X81375238Y-102020714D01*
X81470476Y-102020714D01*
X82184761Y-102639761D02*
X82089523Y-102687380D01*
X81899047Y-102687380D01*
X81803809Y-102639761D01*
X81756190Y-102544523D01*
X81756190Y-102163571D01*
X81803809Y-102068333D01*
X81899047Y-102020714D01*
X82089523Y-102020714D01*
X82184761Y-102068333D01*
X82232380Y-102163571D01*
X82232380Y-102258809D01*
X81756190Y-102354047D01*
X83422857Y-102687380D02*
X83422857Y-101687380D01*
X83422857Y-102068333D02*
X83518095Y-102020714D01*
X83708571Y-102020714D01*
X83803809Y-102068333D01*
X83851428Y-102115952D01*
X83899047Y-102211190D01*
X83899047Y-102496904D01*
X83851428Y-102592142D01*
X83803809Y-102639761D01*
X83708571Y-102687380D01*
X83518095Y-102687380D01*
X83422857Y-102639761D01*
X84708571Y-102639761D02*
X84613333Y-102687380D01*
X84422857Y-102687380D01*
X84327619Y-102639761D01*
X84280000Y-102544523D01*
X84280000Y-102163571D01*
X84327619Y-102068333D01*
X84422857Y-102020714D01*
X84613333Y-102020714D01*
X84708571Y-102068333D01*
X84756190Y-102163571D01*
X84756190Y-102258809D01*
X84280000Y-102354047D01*
X85327619Y-102687380D02*
X85232380Y-102639761D01*
X85184761Y-102544523D01*
X85184761Y-101687380D01*
X85851428Y-102687380D02*
X85756190Y-102639761D01*
X85708571Y-102592142D01*
X85660952Y-102496904D01*
X85660952Y-102211190D01*
X85708571Y-102115952D01*
X85756190Y-102068333D01*
X85851428Y-102020714D01*
X85994285Y-102020714D01*
X86089523Y-102068333D01*
X86137142Y-102115952D01*
X86184761Y-102211190D01*
X86184761Y-102496904D01*
X86137142Y-102592142D01*
X86089523Y-102639761D01*
X85994285Y-102687380D01*
X85851428Y-102687380D01*
X86613333Y-102020714D02*
X86613333Y-102687380D01*
X86613333Y-102115952D02*
X86660952Y-102068333D01*
X86756190Y-102020714D01*
X86899047Y-102020714D01*
X86994285Y-102068333D01*
X87041904Y-102163571D01*
X87041904Y-102687380D01*
X87946666Y-102020714D02*
X87946666Y-102830238D01*
X87899047Y-102925476D01*
X87851428Y-102973095D01*
X87756190Y-103020714D01*
X87613333Y-103020714D01*
X87518095Y-102973095D01*
X87946666Y-102639761D02*
X87851428Y-102687380D01*
X87660952Y-102687380D01*
X87565714Y-102639761D01*
X87518095Y-102592142D01*
X87470476Y-102496904D01*
X87470476Y-102211190D01*
X87518095Y-102115952D01*
X87565714Y-102068333D01*
X87660952Y-102020714D01*
X87851428Y-102020714D01*
X87946666Y-102068333D01*
X89041904Y-102020714D02*
X89422857Y-102020714D01*
X89184761Y-101687380D02*
X89184761Y-102544523D01*
X89232380Y-102639761D01*
X89327619Y-102687380D01*
X89422857Y-102687380D01*
X89899047Y-102687380D02*
X89803809Y-102639761D01*
X89756190Y-102592142D01*
X89708571Y-102496904D01*
X89708571Y-102211190D01*
X89756190Y-102115952D01*
X89803809Y-102068333D01*
X89899047Y-102020714D01*
X90041904Y-102020714D01*
X90137142Y-102068333D01*
X90184761Y-102115952D01*
X90232380Y-102211190D01*
X90232380Y-102496904D01*
X90184761Y-102592142D01*
X90137142Y-102639761D01*
X90041904Y-102687380D01*
X89899047Y-102687380D01*
X91851428Y-102020714D02*
X91851428Y-102687380D01*
X91422857Y-102020714D02*
X91422857Y-102544523D01*
X91470476Y-102639761D01*
X91565714Y-102687380D01*
X91708571Y-102687380D01*
X91803809Y-102639761D01*
X91851428Y-102592142D01*
X92280000Y-102639761D02*
X92375238Y-102687380D01*
X92565714Y-102687380D01*
X92660952Y-102639761D01*
X92708571Y-102544523D01*
X92708571Y-102496904D01*
X92660952Y-102401666D01*
X92565714Y-102354047D01*
X92422857Y-102354047D01*
X92327619Y-102306428D01*
X92280000Y-102211190D01*
X92280000Y-102163571D01*
X92327619Y-102068333D01*
X92422857Y-102020714D01*
X92565714Y-102020714D01*
X92660952Y-102068333D01*
X93137142Y-102592142D02*
X93184761Y-102639761D01*
X93137142Y-102687380D01*
X93089523Y-102639761D01*
X93137142Y-102592142D01*
X93137142Y-102687380D01*
D11*
X77184285Y-66488571D02*
X76470000Y-66488571D01*
X76398571Y-67202857D01*
X76470000Y-67131428D01*
X76612857Y-67060000D01*
X76970000Y-67060000D01*
X77112857Y-67131428D01*
X77184285Y-67202857D01*
X77255714Y-67345714D01*
X77255714Y-67702857D01*
X77184285Y-67845714D01*
X77112857Y-67917142D01*
X76970000Y-67988571D01*
X76612857Y-67988571D01*
X76470000Y-67917142D01*
X76398571Y-67845714D01*
X77684285Y-66488571D02*
X78184285Y-67988571D01*
X78684285Y-66488571D01*
X73688571Y-95698571D02*
X74545714Y-95698571D01*
X74117142Y-97198571D02*
X74117142Y-95698571D01*
X75045714Y-96627142D02*
X76188571Y-96627142D01*
X77760000Y-97198571D02*
X77260000Y-96484285D01*
X76902857Y-97198571D02*
X76902857Y-95698571D01*
X77474285Y-95698571D01*
X77617142Y-95770000D01*
X77688571Y-95841428D01*
X77760000Y-95984285D01*
X77760000Y-96198571D01*
X77688571Y-96341428D01*
X77617142Y-96412857D01*
X77474285Y-96484285D01*
X76902857Y-96484285D01*
X79045714Y-97198571D02*
X79045714Y-96412857D01*
X78974285Y-96270000D01*
X78831428Y-96198571D01*
X78545714Y-96198571D01*
X78402857Y-96270000D01*
X79045714Y-97127142D02*
X78902857Y-97198571D01*
X78545714Y-97198571D01*
X78402857Y-97127142D01*
X78331428Y-96984285D01*
X78331428Y-96841428D01*
X78402857Y-96698571D01*
X78545714Y-96627142D01*
X78902857Y-96627142D01*
X79045714Y-96555714D01*
X79617142Y-97198571D02*
X80402857Y-96198571D01*
X79617142Y-96198571D02*
X80402857Y-97198571D01*
X81974285Y-96198571D02*
X82331428Y-97198571D01*
X82688571Y-96198571D01*
X84045714Y-97198571D02*
X83188571Y-97198571D01*
X83617142Y-97198571D02*
X83617142Y-95698571D01*
X83474285Y-95912857D01*
X83331428Y-96055714D01*
X83188571Y-96127142D01*
X84688571Y-97055714D02*
X84760000Y-97127142D01*
X84688571Y-97198571D01*
X84617142Y-97127142D01*
X84688571Y-97055714D01*
X84688571Y-97198571D01*
X85260000Y-95698571D02*
X86260000Y-95698571D01*
X85617142Y-97198571D01*
X66153571Y-92245714D02*
X66010714Y-92174285D01*
X65724999Y-92174285D01*
X65582142Y-92245714D01*
X65439285Y-92388571D01*
X65367857Y-92531428D01*
X65367857Y-92817142D01*
X65439285Y-92960000D01*
X65582142Y-93102857D01*
X65724999Y-93174285D01*
X66010714Y-93174285D01*
X66153571Y-93102857D01*
X65867857Y-91674285D02*
X65510714Y-91745714D01*
X65153571Y-91960000D01*
X64939285Y-92317142D01*
X64867857Y-92674285D01*
X64939285Y-93031428D01*
X65153571Y-93388571D01*
X65510714Y-93602857D01*
X65867857Y-93674285D01*
X66224999Y-93602857D01*
X66582142Y-93388571D01*
X66796428Y-93031428D01*
X66867857Y-92674285D01*
X66796428Y-92317142D01*
X66582142Y-91960000D01*
X66224999Y-91745714D01*
X65867857Y-91674285D01*
X67439285Y-92031428D02*
X67510714Y-91960000D01*
X67653571Y-91888571D01*
X68010714Y-91888571D01*
X68153571Y-91960000D01*
X68225000Y-92031428D01*
X68296428Y-92174285D01*
X68296428Y-92317142D01*
X68225000Y-92531428D01*
X67367857Y-93388571D01*
X68296428Y-93388571D01*
X69225000Y-91888571D02*
X69367857Y-91888571D01*
X69510714Y-91960000D01*
X69582142Y-92031428D01*
X69653571Y-92174285D01*
X69725000Y-92460000D01*
X69725000Y-92817142D01*
X69653571Y-93102857D01*
X69582142Y-93245714D01*
X69510714Y-93317142D01*
X69367857Y-93388571D01*
X69225000Y-93388571D01*
X69082142Y-93317142D01*
X69010714Y-93245714D01*
X68939285Y-93102857D01*
X68867857Y-92817142D01*
X68867857Y-92460000D01*
X68939285Y-92174285D01*
X69010714Y-92031428D01*
X69082142Y-91960000D01*
X69225000Y-91888571D01*
X70296428Y-92031428D02*
X70367857Y-91960000D01*
X70510714Y-91888571D01*
X70867857Y-91888571D01*
X71010714Y-91960000D01*
X71082142Y-92031428D01*
X71153571Y-92174285D01*
X71153571Y-92317142D01*
X71082142Y-92531428D01*
X70225000Y-93388571D01*
X71153571Y-93388571D01*
X72439285Y-92388571D02*
X72439285Y-93388571D01*
X72082142Y-91817142D02*
X71725000Y-92888571D01*
X72653571Y-92888571D01*
X75225000Y-93388571D02*
X74725000Y-92674285D01*
X74367857Y-93388571D02*
X74367857Y-91888571D01*
X74939285Y-91888571D01*
X75082142Y-91960000D01*
X75153571Y-92031428D01*
X75225000Y-92174285D01*
X75225000Y-92388571D01*
X75153571Y-92531428D01*
X75082142Y-92602857D01*
X74939285Y-92674285D01*
X74367857Y-92674285D01*
X76082142Y-93388571D02*
X75939285Y-93317142D01*
X75867857Y-93245714D01*
X75796428Y-93102857D01*
X75796428Y-92674285D01*
X75867857Y-92531428D01*
X75939285Y-92460000D01*
X76082142Y-92388571D01*
X76296428Y-92388571D01*
X76439285Y-92460000D01*
X76510714Y-92531428D01*
X76582142Y-92674285D01*
X76582142Y-93102857D01*
X76510714Y-93245714D01*
X76439285Y-93317142D01*
X76296428Y-93388571D01*
X76082142Y-93388571D01*
X77224999Y-93388571D02*
X77224999Y-91888571D01*
X77224999Y-92460000D02*
X77367857Y-92388571D01*
X77653571Y-92388571D01*
X77796428Y-92460000D01*
X77867857Y-92531428D01*
X77939285Y-92674285D01*
X77939285Y-93102857D01*
X77867857Y-93245714D01*
X77796428Y-93317142D01*
X77653571Y-93388571D01*
X77367857Y-93388571D01*
X77224999Y-93317142D01*
X79153571Y-93317142D02*
X79010714Y-93388571D01*
X78724999Y-93388571D01*
X78582142Y-93317142D01*
X78510714Y-93174285D01*
X78510714Y-92602857D01*
X78582142Y-92460000D01*
X78724999Y-92388571D01*
X79010714Y-92388571D01*
X79153571Y-92460000D01*
X79224999Y-92602857D01*
X79224999Y-92745714D01*
X78510714Y-92888571D01*
X79867857Y-93388571D02*
X79867857Y-92388571D01*
X79867857Y-92674285D02*
X79939285Y-92531428D01*
X80010714Y-92460000D01*
X80153571Y-92388571D01*
X80296428Y-92388571D01*
X80582142Y-92388571D02*
X81153571Y-92388571D01*
X80796428Y-91888571D02*
X80796428Y-93174285D01*
X80867857Y-93317142D01*
X81010714Y-93388571D01*
X81153571Y-93388571D01*
X83296428Y-92602857D02*
X82796428Y-92602857D01*
X82796428Y-93388571D02*
X82796428Y-91888571D01*
X83510714Y-91888571D01*
X84653571Y-93317142D02*
X84510714Y-93388571D01*
X84225000Y-93388571D01*
X84082142Y-93317142D01*
X84010714Y-93174285D01*
X84010714Y-92602857D01*
X84082142Y-92460000D01*
X84225000Y-92388571D01*
X84510714Y-92388571D01*
X84653571Y-92460000D01*
X84725000Y-92602857D01*
X84725000Y-92745714D01*
X84010714Y-92888571D01*
X85367857Y-93388571D02*
X85367857Y-92388571D01*
X85367857Y-92674285D02*
X85439285Y-92531428D01*
X85510714Y-92460000D01*
X85653571Y-92388571D01*
X85796428Y-92388571D01*
X86939285Y-92388571D02*
X86939285Y-93602857D01*
X86867857Y-93745714D01*
X86796428Y-93817142D01*
X86653571Y-93888571D01*
X86439285Y-93888571D01*
X86296428Y-93817142D01*
X86939285Y-93317142D02*
X86796428Y-93388571D01*
X86510714Y-93388571D01*
X86367857Y-93317142D01*
X86296428Y-93245714D01*
X86225000Y-93102857D01*
X86225000Y-92674285D01*
X86296428Y-92531428D01*
X86367857Y-92460000D01*
X86510714Y-92388571D01*
X86796428Y-92388571D01*
X86939285Y-92460000D01*
X88296428Y-92388571D02*
X88296428Y-93388571D01*
X87653571Y-92388571D02*
X87653571Y-93174285D01*
X87725000Y-93317142D01*
X87867857Y-93388571D01*
X88082142Y-93388571D01*
X88225000Y-93317142D01*
X88296428Y-93245714D01*
X88939285Y-93317142D02*
X89082142Y-93388571D01*
X89367857Y-93388571D01*
X89510714Y-93317142D01*
X89582142Y-93174285D01*
X89582142Y-93102857D01*
X89510714Y-92960000D01*
X89367857Y-92888571D01*
X89153571Y-92888571D01*
X89010714Y-92817142D01*
X88939285Y-92674285D01*
X88939285Y-92602857D01*
X89010714Y-92460000D01*
X89153571Y-92388571D01*
X89367857Y-92388571D01*
X89510714Y-92460000D01*
X90439285Y-93388571D02*
X90296428Y-93317142D01*
X90225000Y-93245714D01*
X90153571Y-93102857D01*
X90153571Y-92674285D01*
X90225000Y-92531428D01*
X90296428Y-92460000D01*
X90439285Y-92388571D01*
X90653571Y-92388571D01*
X90796428Y-92460000D01*
X90867857Y-92531428D01*
X90939285Y-92674285D01*
X90939285Y-93102857D01*
X90867857Y-93245714D01*
X90796428Y-93317142D01*
X90653571Y-93388571D01*
X90439285Y-93388571D01*
X91582142Y-92388571D02*
X91582142Y-93388571D01*
X91582142Y-92531428D02*
X91653571Y-92460000D01*
X91796428Y-92388571D01*
X92010714Y-92388571D01*
X92153571Y-92460000D01*
X92225000Y-92602857D01*
X92225000Y-93388571D01*
X94367857Y-91888571D02*
X94653571Y-91888571D01*
X94796428Y-91960000D01*
X94939285Y-92102857D01*
X95010714Y-92388571D01*
X95010714Y-92888571D01*
X94939285Y-93174285D01*
X94796428Y-93317142D01*
X94653571Y-93388571D01*
X94367857Y-93388571D01*
X94225000Y-93317142D01*
X94082142Y-93174285D01*
X94010714Y-92888571D01*
X94010714Y-92388571D01*
X94082142Y-92102857D01*
X94225000Y-91960000D01*
X94367857Y-91888571D01*
X95653571Y-93388571D02*
X95653571Y-91888571D01*
X95653571Y-92460000D02*
X95796428Y-92388571D01*
X96082142Y-92388571D01*
X96225000Y-92460000D01*
X96296428Y-92531428D01*
X96367857Y-92674285D01*
X96367857Y-93102857D01*
X96296428Y-93245714D01*
X96225000Y-93317142D01*
X96082142Y-93388571D01*
X95796428Y-93388571D01*
X95653571Y-93317142D01*
X96939285Y-93317142D02*
X97082142Y-93388571D01*
X97367857Y-93388571D01*
X97510714Y-93317142D01*
X97582142Y-93174285D01*
X97582142Y-93102857D01*
X97510714Y-92960000D01*
X97367857Y-92888571D01*
X97153571Y-92888571D01*
X97010714Y-92817142D01*
X96939285Y-92674285D01*
X96939285Y-92602857D01*
X97010714Y-92460000D01*
X97153571Y-92388571D01*
X97367857Y-92388571D01*
X97510714Y-92460000D01*
X98796428Y-93317142D02*
X98653571Y-93388571D01*
X98367857Y-93388571D01*
X98225000Y-93317142D01*
X98153571Y-93174285D01*
X98153571Y-92602857D01*
X98225000Y-92460000D01*
X98367857Y-92388571D01*
X98653571Y-92388571D01*
X98796428Y-92460000D01*
X98867857Y-92602857D01*
X98867857Y-92745714D01*
X98153571Y-92888571D01*
X99510714Y-93388571D02*
X99510714Y-92388571D01*
X99510714Y-92674285D02*
X99582142Y-92531428D01*
X99653571Y-92460000D01*
X99796428Y-92388571D01*
X99939285Y-92388571D01*
X100296428Y-92388571D02*
X100653571Y-93388571D01*
X101010714Y-92388571D01*
X102225000Y-93388571D02*
X102225000Y-92602857D01*
X102153571Y-92460000D01*
X102010714Y-92388571D01*
X101725000Y-92388571D01*
X101582142Y-92460000D01*
X102225000Y-93317142D02*
X102082142Y-93388571D01*
X101725000Y-93388571D01*
X101582142Y-93317142D01*
X101510714Y-93174285D01*
X101510714Y-93031428D01*
X101582142Y-92888571D01*
X101725000Y-92817142D01*
X102082142Y-92817142D01*
X102225000Y-92745714D01*
X102725000Y-92388571D02*
X103296428Y-92388571D01*
X102939285Y-91888571D02*
X102939285Y-93174285D01*
X103010714Y-93317142D01*
X103153571Y-93388571D01*
X103296428Y-93388571D01*
X104010714Y-93388571D02*
X103867857Y-93317142D01*
X103796428Y-93245714D01*
X103725000Y-93102857D01*
X103725000Y-92674285D01*
X103796428Y-92531428D01*
X103867857Y-92460000D01*
X104010714Y-92388571D01*
X104225000Y-92388571D01*
X104367857Y-92460000D01*
X104439285Y-92531428D01*
X104510714Y-92674285D01*
X104510714Y-93102857D01*
X104439285Y-93245714D01*
X104367857Y-93317142D01*
X104225000Y-93388571D01*
X104010714Y-93388571D01*
X105153571Y-93388571D02*
X105153571Y-92388571D01*
X105153571Y-92674285D02*
X105225000Y-92531428D01*
X105296428Y-92460000D01*
X105439285Y-92388571D01*
X105582142Y-92388571D01*
X105939285Y-92388571D02*
X106296428Y-93388571D01*
X106653571Y-92388571D02*
X106296428Y-93388571D01*
X106153571Y-93745714D01*
X106082142Y-93817142D01*
X105939285Y-93888571D01*
D12*
X88233571Y-82059761D02*
X87281190Y-82059761D01*
X87281190Y-80059761D01*
X89757380Y-82059761D02*
X89757380Y-81012142D01*
X89662142Y-80821666D01*
X89471666Y-80726428D01*
X89090714Y-80726428D01*
X88900238Y-80821666D01*
X89757380Y-81964523D02*
X89566904Y-82059761D01*
X89090714Y-82059761D01*
X88900238Y-81964523D01*
X88805000Y-81774047D01*
X88805000Y-81583571D01*
X88900238Y-81393095D01*
X89090714Y-81297857D01*
X89566904Y-81297857D01*
X89757380Y-81202619D01*
X90614523Y-81964523D02*
X90805000Y-82059761D01*
X91185952Y-82059761D01*
X91376428Y-81964523D01*
X91471666Y-81774047D01*
X91471666Y-81678809D01*
X91376428Y-81488333D01*
X91185952Y-81393095D01*
X90900238Y-81393095D01*
X90709761Y-81297857D01*
X90614523Y-81107380D01*
X90614523Y-81012142D01*
X90709761Y-80821666D01*
X90900238Y-80726428D01*
X91185952Y-80726428D01*
X91376428Y-80821666D01*
X93090714Y-81964523D02*
X92900238Y-82059761D01*
X92519285Y-82059761D01*
X92328809Y-81964523D01*
X92233571Y-81774047D01*
X92233571Y-81012142D01*
X92328809Y-80821666D01*
X92519285Y-80726428D01*
X92900238Y-80726428D01*
X93090714Y-80821666D01*
X93185952Y-81012142D01*
X93185952Y-81202619D01*
X92233571Y-81393095D01*
X94043095Y-82059761D02*
X94043095Y-80726428D01*
X94043095Y-81107380D02*
X94138333Y-80916904D01*
X94233571Y-80821666D01*
X94424047Y-80726428D01*
X94614523Y-80726428D01*
X87947857Y-85359761D02*
X87947857Y-83359761D01*
X88709761Y-83359761D01*
X88900238Y-83455000D01*
X88995476Y-83550238D01*
X89090714Y-83740714D01*
X89090714Y-84026428D01*
X88995476Y-84216904D01*
X88900238Y-84312142D01*
X88709761Y-84407380D01*
X87947857Y-84407380D01*
X90805000Y-85359761D02*
X90805000Y-84312142D01*
X90709761Y-84121666D01*
X90519285Y-84026428D01*
X90138333Y-84026428D01*
X89947857Y-84121666D01*
X90805000Y-85264523D02*
X90614523Y-85359761D01*
X90138333Y-85359761D01*
X89947857Y-85264523D01*
X89852619Y-85074047D01*
X89852619Y-84883571D01*
X89947857Y-84693095D01*
X90138333Y-84597857D01*
X90614523Y-84597857D01*
X90805000Y-84502619D01*
X91757380Y-85359761D02*
X91757380Y-84026428D01*
X91757380Y-84407380D02*
X91852619Y-84216904D01*
X91947857Y-84121666D01*
X92138333Y-84026428D01*
X92328809Y-84026428D01*
X92995476Y-85359761D02*
X92995476Y-83359761D01*
X93185952Y-84597857D02*
X93757380Y-85359761D01*
X93757380Y-84026428D02*
X92995476Y-84788333D01*
X85043095Y-88659761D02*
X85043095Y-86659761D01*
X85519285Y-86659761D01*
X85805000Y-86755000D01*
X85995476Y-86945476D01*
X86090714Y-87135952D01*
X86185952Y-87516904D01*
X86185952Y-87802619D01*
X86090714Y-88183571D01*
X85995476Y-88374047D01*
X85805000Y-88564523D01*
X85519285Y-88659761D01*
X85043095Y-88659761D01*
X87805000Y-88564523D02*
X87614523Y-88659761D01*
X87233571Y-88659761D01*
X87043095Y-88564523D01*
X86947857Y-88374047D01*
X86947857Y-87612142D01*
X87043095Y-87421666D01*
X87233571Y-87326428D01*
X87614523Y-87326428D01*
X87805000Y-87421666D01*
X87900238Y-87612142D01*
X87900238Y-87802619D01*
X86947857Y-87993095D01*
X88471666Y-87326428D02*
X89233571Y-87326428D01*
X88757380Y-86659761D02*
X88757380Y-88374047D01*
X88852619Y-88564523D01*
X89043095Y-88659761D01*
X89233571Y-88659761D01*
X90662142Y-88564523D02*
X90471666Y-88659761D01*
X90090714Y-88659761D01*
X89900238Y-88564523D01*
X89805000Y-88374047D01*
X89805000Y-87612142D01*
X89900238Y-87421666D01*
X90090714Y-87326428D01*
X90471666Y-87326428D01*
X90662142Y-87421666D01*
X90757380Y-87612142D01*
X90757380Y-87802619D01*
X89805000Y-87993095D01*
X92471666Y-88564523D02*
X92281190Y-88659761D01*
X91900238Y-88659761D01*
X91709761Y-88564523D01*
X91614523Y-88469285D01*
X91519285Y-88278809D01*
X91519285Y-87707380D01*
X91614523Y-87516904D01*
X91709761Y-87421666D01*
X91900238Y-87326428D01*
X92281190Y-87326428D01*
X92471666Y-87421666D01*
X93043095Y-87326428D02*
X93805000Y-87326428D01*
X93328809Y-86659761D02*
X93328809Y-88374047D01*
X93424047Y-88564523D01*
X93614523Y-88659761D01*
X93805000Y-88659761D01*
X94757380Y-88659761D02*
X94566904Y-88564523D01*
X94471666Y-88469285D01*
X94376428Y-88278809D01*
X94376428Y-87707380D01*
X94471666Y-87516904D01*
X94566904Y-87421666D01*
X94757380Y-87326428D01*
X95043095Y-87326428D01*
X95233571Y-87421666D01*
X95328809Y-87516904D01*
X95424047Y-87707380D01*
X95424047Y-88278809D01*
X95328809Y-88469285D01*
X95233571Y-88564523D01*
X95043095Y-88659761D01*
X94757380Y-88659761D01*
X96281190Y-88659761D02*
X96281190Y-87326428D01*
X96281190Y-87707380D02*
X96376428Y-87516904D01*
X96471666Y-87421666D01*
X96662142Y-87326428D01*
X96852619Y-87326428D01*
X105517142Y-101492857D02*
X105731428Y-101564285D01*
X105802857Y-101635714D01*
X105874285Y-101778571D01*
X105874285Y-101992857D01*
X105802857Y-102135714D01*
X105731428Y-102207142D01*
X105588571Y-102278571D01*
X105017142Y-102278571D01*
X105017142Y-100778571D01*
X105517142Y-100778571D01*
X105660000Y-100850000D01*
X105731428Y-100921428D01*
X105802857Y-101064285D01*
X105802857Y-101207142D01*
X105731428Y-101350000D01*
X105660000Y-101421428D01*
X105517142Y-101492857D01*
X105017142Y-101492857D01*
X103334285Y-102278571D02*
X102834285Y-101564285D01*
X102477142Y-102278571D02*
X102477142Y-100778571D01*
X103048571Y-100778571D01*
X103191428Y-100850000D01*
X103262857Y-100921428D01*
X103334285Y-101064285D01*
X103334285Y-101278571D01*
X103262857Y-101421428D01*
X103191428Y-101492857D01*
X103048571Y-101564285D01*
X102477142Y-101564285D01*
X100722857Y-100850000D02*
X100580000Y-100778571D01*
X100365714Y-100778571D01*
X100151428Y-100850000D01*
X100008571Y-100992857D01*
X99937142Y-101135714D01*
X99865714Y-101421428D01*
X99865714Y-101635714D01*
X99937142Y-101921428D01*
X100008571Y-102064285D01*
X100151428Y-102207142D01*
X100365714Y-102278571D01*
X100508571Y-102278571D01*
X100722857Y-102207142D01*
X100794285Y-102135714D01*
X100794285Y-101635714D01*
X100508571Y-101635714D01*
X97790000Y-101564285D02*
X97790000Y-102278571D01*
X97290000Y-100778571D02*
X97790000Y-101564285D01*
X98290000Y-100778571D01*
D13*
%TO.C,U1*%
X82720000Y-72960000D02*
X72220000Y-72960000D01*
X82720000Y-89070000D02*
X72220000Y-89070000D01*
X82720000Y-89070000D02*
X82720000Y-72960000D01*
X72220000Y-89070000D02*
X72220000Y-72960000D01*
X80010000Y-72960000D02*
X80010000Y-71000000D01*
X77470000Y-72960000D02*
X77470000Y-71000000D01*
X74930000Y-72960000D02*
X74930000Y-71000000D01*
%TO.C,J1*%
X109280000Y-97095000D02*
X109280000Y-98425000D01*
X107950000Y-97095000D02*
X109280000Y-97095000D01*
X106680000Y-97095000D02*
X106680000Y-99755000D01*
X106680000Y-99755000D02*
X93920000Y-99755000D01*
X106680000Y-97095000D02*
X93920000Y-97095000D01*
X93920000Y-97095000D02*
X93920000Y-99755000D01*
%TO.C,Q1*%
X116310000Y-72970000D02*
X119910000Y-72970000D01*
X116271522Y-72958478D02*
G75*
G02*
X118110000Y-68520000I1838478J1838478D01*
G01*
X119948478Y-72958478D02*
G75*
G03*
X118110000Y-68520000I-1838478J1838478D01*
G01*
%TO.C,R1*%
X74415000Y-64000000D02*
X71635000Y-64000000D01*
X74415000Y-55380000D02*
X71635000Y-55380000D01*
X71635000Y-55380000D02*
X71635000Y-64000000D01*
X74415000Y-55380000D02*
X74415000Y-64000000D01*
%TO.C,R2*%
X79890000Y-64000000D02*
X79890000Y-55380000D01*
X82670000Y-64000000D02*
X82670000Y-55380000D01*
X79890000Y-64000000D02*
X82670000Y-64000000D01*
X79890000Y-55380000D02*
X82670000Y-55380000D01*
%TO.C,R3*%
X133850000Y-64650000D02*
X133850000Y-67430000D01*
X125230000Y-64650000D02*
X125230000Y-67430000D01*
X125230000Y-67430000D02*
X133850000Y-67430000D01*
X125230000Y-64650000D02*
X133850000Y-64650000D01*
%TO.C,R4*%
X125230000Y-71635000D02*
X133850000Y-71635000D01*
X125230000Y-74415000D02*
X133850000Y-74415000D01*
X125230000Y-71635000D02*
X125230000Y-74415000D01*
X133850000Y-71635000D02*
X133850000Y-74415000D01*
%TO.C,R5*%
X133850000Y-78620000D02*
X133850000Y-81400000D01*
X125230000Y-78620000D02*
X125230000Y-81400000D01*
X125230000Y-81400000D02*
X133850000Y-81400000D01*
X125230000Y-78620000D02*
X133850000Y-78620000D01*
%TO.C,U2*%
X120760000Y-81220000D02*
X119110000Y-81220000D01*
X120760000Y-88960000D02*
X120760000Y-81220000D01*
X115460000Y-88960000D02*
X120760000Y-88960000D01*
X115460000Y-81220000D02*
X115460000Y-88960000D01*
X117110000Y-81220000D02*
X115460000Y-81220000D01*
X119110000Y-81220000D02*
G75*
G02*
X117110000Y-81220000I-1000000J0D01*
G01*
%TO.C,X1*%
X97155000Y-74355000D02*
X97155000Y-71695000D01*
X97155000Y-74355000D02*
X104835000Y-74355000D01*
X104835000Y-74355000D02*
X104835000Y-71695000D01*
X97155000Y-71695000D02*
X104835000Y-71695000D01*
X94555000Y-71695000D02*
X95885000Y-71695000D01*
X94555000Y-73025000D02*
X94555000Y-71695000D01*
%TO.C,U1*%
D10*
X69723095Y-71207380D02*
X69723095Y-72016904D01*
X69770714Y-72112142D01*
X69818333Y-72159761D01*
X69913571Y-72207380D01*
X70104047Y-72207380D01*
X70199285Y-72159761D01*
X70246904Y-72112142D01*
X70294523Y-72016904D01*
X70294523Y-71207380D01*
X71294523Y-72207380D02*
X70723095Y-72207380D01*
X71008809Y-72207380D02*
X71008809Y-71207380D01*
X70913571Y-71350238D01*
X70818333Y-71445476D01*
X70723095Y-71493095D01*
%TO.C,J1*%
X111426666Y-97877380D02*
X111426666Y-98591666D01*
X111379047Y-98734523D01*
X111283809Y-98829761D01*
X111140952Y-98877380D01*
X111045714Y-98877380D01*
X112426666Y-98877380D02*
X111855238Y-98877380D01*
X112140952Y-98877380D02*
X112140952Y-97877380D01*
X112045714Y-98020238D01*
X111950476Y-98115476D01*
X111855238Y-98163095D01*
%TO.C,Q1*%
X118014761Y-68107619D02*
X117919523Y-68060000D01*
X117824285Y-67964761D01*
X117681428Y-67821904D01*
X117586190Y-67774285D01*
X117490952Y-67774285D01*
X117538571Y-68012380D02*
X117443333Y-67964761D01*
X117348095Y-67869523D01*
X117300476Y-67679047D01*
X117300476Y-67345714D01*
X117348095Y-67155238D01*
X117443333Y-67060000D01*
X117538571Y-67012380D01*
X117729047Y-67012380D01*
X117824285Y-67060000D01*
X117919523Y-67155238D01*
X117967142Y-67345714D01*
X117967142Y-67679047D01*
X117919523Y-67869523D01*
X117824285Y-67964761D01*
X117729047Y-68012380D01*
X117538571Y-68012380D01*
X118919523Y-68012380D02*
X118348095Y-68012380D01*
X118633809Y-68012380D02*
X118633809Y-67012380D01*
X118538571Y-67155238D01*
X118443333Y-67250476D01*
X118348095Y-67298095D01*
%TO.C,R1*%
X72858333Y-65857380D02*
X72525000Y-65381190D01*
X72286904Y-65857380D02*
X72286904Y-64857380D01*
X72667857Y-64857380D01*
X72763095Y-64905000D01*
X72810714Y-64952619D01*
X72858333Y-65047857D01*
X72858333Y-65190714D01*
X72810714Y-65285952D01*
X72763095Y-65333571D01*
X72667857Y-65381190D01*
X72286904Y-65381190D01*
X73810714Y-65857380D02*
X73239285Y-65857380D01*
X73525000Y-65857380D02*
X73525000Y-64857380D01*
X73429761Y-65000238D01*
X73334523Y-65095476D01*
X73239285Y-65143095D01*
%TO.C,R2*%
X81113333Y-65857380D02*
X80780000Y-65381190D01*
X80541904Y-65857380D02*
X80541904Y-64857380D01*
X80922857Y-64857380D01*
X81018095Y-64905000D01*
X81065714Y-64952619D01*
X81113333Y-65047857D01*
X81113333Y-65190714D01*
X81065714Y-65285952D01*
X81018095Y-65333571D01*
X80922857Y-65381190D01*
X80541904Y-65381190D01*
X81494285Y-64952619D02*
X81541904Y-64905000D01*
X81637142Y-64857380D01*
X81875238Y-64857380D01*
X81970476Y-64905000D01*
X82018095Y-64952619D01*
X82065714Y-65047857D01*
X82065714Y-65143095D01*
X82018095Y-65285952D01*
X81446666Y-65857380D01*
X82065714Y-65857380D01*
%TO.C,R3*%
X129373333Y-63972380D02*
X129040000Y-63496190D01*
X128801904Y-63972380D02*
X128801904Y-62972380D01*
X129182857Y-62972380D01*
X129278095Y-63020000D01*
X129325714Y-63067619D01*
X129373333Y-63162857D01*
X129373333Y-63305714D01*
X129325714Y-63400952D01*
X129278095Y-63448571D01*
X129182857Y-63496190D01*
X128801904Y-63496190D01*
X129706666Y-62972380D02*
X130325714Y-62972380D01*
X129992380Y-63353333D01*
X130135238Y-63353333D01*
X130230476Y-63400952D01*
X130278095Y-63448571D01*
X130325714Y-63543809D01*
X130325714Y-63781904D01*
X130278095Y-63877142D01*
X130230476Y-63924761D01*
X130135238Y-63972380D01*
X129849523Y-63972380D01*
X129754285Y-63924761D01*
X129706666Y-63877142D01*
%TO.C,R4*%
X129373333Y-70957380D02*
X129040000Y-70481190D01*
X128801904Y-70957380D02*
X128801904Y-69957380D01*
X129182857Y-69957380D01*
X129278095Y-70005000D01*
X129325714Y-70052619D01*
X129373333Y-70147857D01*
X129373333Y-70290714D01*
X129325714Y-70385952D01*
X129278095Y-70433571D01*
X129182857Y-70481190D01*
X128801904Y-70481190D01*
X130230476Y-70290714D02*
X130230476Y-70957380D01*
X129992380Y-69909761D02*
X129754285Y-70624047D01*
X130373333Y-70624047D01*
%TO.C,R5*%
X129373333Y-77942380D02*
X129040000Y-77466190D01*
X128801904Y-77942380D02*
X128801904Y-76942380D01*
X129182857Y-76942380D01*
X129278095Y-76990000D01*
X129325714Y-77037619D01*
X129373333Y-77132857D01*
X129373333Y-77275714D01*
X129325714Y-77370952D01*
X129278095Y-77418571D01*
X129182857Y-77466190D01*
X128801904Y-77466190D01*
X130278095Y-76942380D02*
X129801904Y-76942380D01*
X129754285Y-77418571D01*
X129801904Y-77370952D01*
X129897142Y-77323333D01*
X130135238Y-77323333D01*
X130230476Y-77370952D01*
X130278095Y-77418571D01*
X130325714Y-77513809D01*
X130325714Y-77751904D01*
X130278095Y-77847142D01*
X130230476Y-77894761D01*
X130135238Y-77942380D01*
X129897142Y-77942380D01*
X129801904Y-77894761D01*
X129754285Y-77847142D01*
%TO.C,U2*%
X117348095Y-79672380D02*
X117348095Y-80481904D01*
X117395714Y-80577142D01*
X117443333Y-80624761D01*
X117538571Y-80672380D01*
X117729047Y-80672380D01*
X117824285Y-80624761D01*
X117871904Y-80577142D01*
X117919523Y-80481904D01*
X117919523Y-79672380D01*
X118348095Y-79767619D02*
X118395714Y-79720000D01*
X118490952Y-79672380D01*
X118729047Y-79672380D01*
X118824285Y-79720000D01*
X118871904Y-79767619D01*
X118919523Y-79862857D01*
X118919523Y-79958095D01*
X118871904Y-80100952D01*
X118300476Y-80672380D01*
X118919523Y-80672380D01*
%TO.C,X1*%
X92305476Y-72477380D02*
X92972142Y-73477380D01*
X92972142Y-72477380D02*
X92305476Y-73477380D01*
X93876904Y-73477380D02*
X93305476Y-73477380D01*
X93591190Y-73477380D02*
X93591190Y-72477380D01*
X93495952Y-72620238D01*
X93400714Y-72715476D01*
X93305476Y-72763095D01*
X97449047Y-76652380D02*
X97449047Y-75652380D01*
X97687142Y-75652380D01*
X97830000Y-75700000D01*
X97925238Y-75795238D01*
X97972857Y-75890476D01*
X98020476Y-76080952D01*
X98020476Y-76223809D01*
X97972857Y-76414285D01*
X97925238Y-76509523D01*
X97830000Y-76604761D01*
X97687142Y-76652380D01*
X97449047Y-76652380D01*
X98830000Y-76604761D02*
X98734761Y-76652380D01*
X98544285Y-76652380D01*
X98449047Y-76604761D01*
X98401428Y-76509523D01*
X98401428Y-76128571D01*
X98449047Y-76033333D01*
X98544285Y-75985714D01*
X98734761Y-75985714D01*
X98830000Y-76033333D01*
X98877619Y-76128571D01*
X98877619Y-76223809D01*
X98401428Y-76319047D01*
X99163333Y-75985714D02*
X99544285Y-75985714D01*
X99306190Y-75652380D02*
X99306190Y-76509523D01*
X99353809Y-76604761D01*
X99449047Y-76652380D01*
X99544285Y-76652380D01*
X100258571Y-76604761D02*
X100163333Y-76652380D01*
X99972857Y-76652380D01*
X99877619Y-76604761D01*
X99830000Y-76509523D01*
X99830000Y-76128571D01*
X99877619Y-76033333D01*
X99972857Y-75985714D01*
X100163333Y-75985714D01*
X100258571Y-76033333D01*
X100306190Y-76128571D01*
X100306190Y-76223809D01*
X99830000Y-76319047D01*
X101163333Y-76604761D02*
X101068095Y-76652380D01*
X100877619Y-76652380D01*
X100782380Y-76604761D01*
X100734761Y-76557142D01*
X100687142Y-76461904D01*
X100687142Y-76176190D01*
X100734761Y-76080952D01*
X100782380Y-76033333D01*
X100877619Y-75985714D01*
X101068095Y-75985714D01*
X101163333Y-76033333D01*
X101449047Y-75985714D02*
X101830000Y-75985714D01*
X101591904Y-75652380D02*
X101591904Y-76509523D01*
X101639523Y-76604761D01*
X101734761Y-76652380D01*
X101830000Y-76652380D01*
X102306190Y-76652380D02*
X102210952Y-76604761D01*
X102163333Y-76557142D01*
X102115714Y-76461904D01*
X102115714Y-76176190D01*
X102163333Y-76080952D01*
X102210952Y-76033333D01*
X102306190Y-75985714D01*
X102449047Y-75985714D01*
X102544285Y-76033333D01*
X102591904Y-76080952D01*
X102639523Y-76176190D01*
X102639523Y-76461904D01*
X102591904Y-76557142D01*
X102544285Y-76604761D01*
X102449047Y-76652380D01*
X102306190Y-76652380D01*
X103068095Y-76652380D02*
X103068095Y-75985714D01*
X103068095Y-76176190D02*
X103115714Y-76080952D01*
X103163333Y-76033333D01*
X103258571Y-75985714D01*
X103353809Y-75985714D01*
%TD*%
M02*
