%TF.GenerationSoftware,KiCad,Pcbnew,(5.1.9-0-10_14)*%
%TF.CreationDate,2024-02-19T19:40:51-08:00*%
%TF.ProjectId,TRax-LaserParkDetector,54526178-2d4c-4617-9365-725061726b44,rev?*%
%TF.SameCoordinates,Original*%
%TF.FileFunction,Copper,L2,Bot*%
%TF.FilePolarity,Positive*%
%FSLAX46Y46*%
G04 Gerber Fmt 4.6, Leading zero omitted, Abs format (unit mm)*
G04 Created by KiCad (PCBNEW (5.1.9-0-10_14)) date 2024-02-19 19:40:51*
%MOMM*%
%LPD*%
G01*
G04 APERTURE LIST*
%TA.AperFunction,ComponentPad*%
%ADD10C,5.600000*%
%TD*%
%TA.AperFunction,ComponentPad*%
%ADD11O,1.905000X2.000000*%
%TD*%
%TA.AperFunction,ComponentPad*%
%ADD12R,1.905000X2.000000*%
%TD*%
%TA.AperFunction,ComponentPad*%
%ADD13R,1.700000X1.700000*%
%TD*%
%TA.AperFunction,ComponentPad*%
%ADD14O,1.700000X1.700000*%
%TD*%
%TA.AperFunction,ComponentPad*%
%ADD15O,1.050000X1.500000*%
%TD*%
%TA.AperFunction,ComponentPad*%
%ADD16R,1.050000X1.500000*%
%TD*%
%TA.AperFunction,ComponentPad*%
%ADD17C,1.600000*%
%TD*%
%TA.AperFunction,ComponentPad*%
%ADD18R,1.600000X1.600000*%
%TD*%
%TA.AperFunction,ComponentPad*%
%ADD19O,1.600000X1.600000*%
%TD*%
%TA.AperFunction,ViaPad*%
%ADD20C,0.800000*%
%TD*%
%TA.AperFunction,Conductor*%
%ADD21C,0.250000*%
%TD*%
G04 APERTURE END LIST*
D10*
%TO.P,REF\u002A\u002A,*%
%TO.N,*%
X99695000Y-61595000D03*
%TD*%
D11*
%TO.P,U1,3*%
%TO.N,Net-(J1-Pad5)*%
X74930000Y-69850000D03*
%TO.P,U1,2*%
%TO.N,Net-(R1-Pad2)*%
X77470000Y-69850000D03*
D12*
%TO.P,U1,1*%
%TO.N,Net-(R1-Pad1)*%
X80010000Y-69850000D03*
%TD*%
D10*
%TO.P,REF\u002A\u002A,*%
%TO.N,*%
X65405000Y-55880000D03*
%TD*%
%TO.P,REF\u002A\u002A,*%
%TO.N,*%
X65405000Y-99695000D03*
%TD*%
%TO.P,REF\u002A\u002A,*%
%TO.N,*%
X132715000Y-55880000D03*
%TD*%
%TO.P,REF\u002A\u002A,*%
%TO.N,*%
X132715000Y-99695000D03*
%TD*%
D13*
%TO.P,J1,1*%
%TO.N,N/C*%
X107950000Y-98425000D03*
D14*
%TO.P,J1,2*%
%TO.N,GND*%
X105410000Y-98425000D03*
%TO.P,J1,3*%
%TO.N,Net-(J1-Pad3)*%
X102870000Y-98425000D03*
%TO.P,J1,4*%
%TO.N,Net-(J1-Pad4)*%
X100330000Y-98425000D03*
%TO.P,J1,5*%
%TO.N,Net-(J1-Pad5)*%
X97790000Y-98425000D03*
%TO.P,J1,6*%
%TO.N,N/C*%
X95250000Y-98425000D03*
%TD*%
D15*
%TO.P,Q1,2*%
%TO.N,Net-(Q1-Pad2)*%
X118110000Y-71120000D03*
%TO.P,Q1,3*%
%TO.N,Net-(Q1-Pad3)*%
X119380000Y-71120000D03*
D16*
%TO.P,Q1,1*%
%TO.N,GND*%
X116840000Y-71120000D03*
%TD*%
D17*
%TO.P,R1,1*%
%TO.N,Net-(R1-Pad1)*%
X73025000Y-57150000D03*
%TO.P,R1,2*%
%TO.N,Net-(R1-Pad2)*%
X73025000Y-62230000D03*
%TD*%
%TO.P,R2,2*%
%TO.N,Net-(R1-Pad1)*%
X81280000Y-57150000D03*
%TO.P,R2,1*%
%TO.N,GND*%
X81280000Y-62230000D03*
%TD*%
%TO.P,R3,1*%
%TO.N,Net-(Q1-Pad2)*%
X127000000Y-66040000D03*
%TO.P,R3,2*%
%TO.N,Net-(R3-Pad2)*%
X132080000Y-66040000D03*
%TD*%
%TO.P,R4,2*%
%TO.N,Net-(Q1-Pad3)*%
X132080000Y-73025000D03*
%TO.P,R4,1*%
%TO.N,Net-(R1-Pad2)*%
X127000000Y-73025000D03*
%TD*%
%TO.P,R5,1*%
%TO.N,Net-(R5-Pad1)*%
X127000000Y-80010000D03*
%TO.P,R5,2*%
%TO.N,Net-(Q1-Pad3)*%
X132080000Y-80010000D03*
%TD*%
D18*
%TO.P,U2,1*%
%TO.N,Net-(R5-Pad1)*%
X114300000Y-82550000D03*
D19*
%TO.P,U2,4*%
%TO.N,Net-(J1-Pad3)*%
X121920000Y-87630000D03*
%TO.P,U2,2*%
%TO.N,GND*%
X114300000Y-85090000D03*
%TO.P,U2,5*%
%TO.N,Net-(J1-Pad4)*%
X121920000Y-85090000D03*
%TO.P,U2,3*%
%TO.N,N/C*%
X114300000Y-87630000D03*
%TO.P,U2,6*%
X121920000Y-82550000D03*
%TD*%
D13*
%TO.P,X1,1*%
%TO.N,Net-(R1-Pad2)*%
X95885000Y-73025000D03*
D14*
%TO.P,X1,2*%
%TO.N,GND*%
X98425000Y-73025000D03*
%TO.P,X1,3*%
%TO.N,Net-(R3-Pad2)*%
X100965000Y-73025000D03*
%TO.P,X1,4*%
%TO.N,N/C*%
X103505000Y-73025000D03*
%TD*%
D20*
%TO.N,Net-(R1-Pad2)*%
X113030000Y-78105000D03*
X110490000Y-78105000D03*
%TD*%
D21*
%TO.N,Net-(R1-Pad2)*%
X77470000Y-69850000D02*
X77470000Y-69215000D01*
X110490000Y-78105000D02*
X113030000Y-78105000D01*
%TD*%
M02*
