M48
; DRILL file {KiCad (5.1.9-0-10_14)} date Tuesday, February 20, 2024 at 06:57:11 AM
; FORMAT={-:-/ absolute / inch / decimal}
; #@! TF.CreationDate,2024-02-20T06:57:11-08:00
; #@! TF.GenerationSoftware,Kicad,Pcbnew,(5.1.9-0-10_14)
; #@! TF.FileFunction,Plated,1,2,PTH
FMAT,2
INCH
T1C0.0157
T2C0.0295
T3C0.0315
T4C0.0394
T5C0.0472
T6C0.1260
%
G90
G05
T1
X4.35Y-3.075
X4.45Y-3.075
T2
X4.6Y-2.8
X4.65Y-2.8
X4.7Y-2.8
T3
X2.875Y-2.25
X2.875Y-2.45
X3.2Y-2.25
X3.2Y-2.45
X4.5Y-3.25
X4.5Y-3.35
X4.5Y-3.45
X4.8Y-3.25
X4.8Y-3.35
X4.8Y-3.45
X5.0Y-2.6
X5.0Y-2.875
X5.0Y-3.15
X5.2Y-2.6
X5.2Y-2.875
X5.2Y-3.15
T4
X3.75Y-3.875
X3.775Y-2.875
X3.85Y-3.875
X3.875Y-2.875
X3.95Y-3.875
X3.975Y-2.875
X4.05Y-3.875
X4.075Y-2.875
X4.15Y-3.875
X4.25Y-3.875
T5
X2.95Y-2.75
X3.05Y-2.75
X3.15Y-2.75
T6
X2.575Y-2.2
X2.575Y-3.925
X3.925Y-2.425
X5.225Y-2.2
X5.225Y-3.925
T0
M30
